<?xml version="1.0" standalone="no"?>
<!DOCTYPE svg PUBLIC "-//W3C//DTD SVG 20010904//EN"
 "http://www.w3.org/TR/2001/REC-SVG-20010904/DTD/svg10.dtd">
<svg version="1.0" xmlns="http://www.w3.org/2000/svg"
 width="912.000000pt" height="912.000000pt" viewBox="0 0 912.000000 912.000000"
 preserveAspectRatio="xMidYMid meet">
<metadata>
Created by potrace 1.14, written by Peter Selinger 2001-2017
</metadata>
<g transform="translate(0.000000,912.000000) scale(0.100000,-0.100000)"
fill="#000000" stroke="none">
<path d="M8950 9003 c-85 -58 -209 -143 -275 -188 -66 -45 -156 -106 -200
-136 -44 -30 -84 -57 -90 -62 -5 -4 -37 -25 -70 -48 -182 -123 -234 -158 -375
-254 -85 -59 -185 -127 -221 -152 l-67 -44 -528 0 c-291 0 -546 0 -566 0 l-38
1 0 134 c0 130 -1 134 -22 140 -13 3 -147 6 -299 6 l-275 0 0 151 c1 126 -2
152 -14 159 -26 14 -2889 10 -2897 -3 -5 -7 -9 -74 -9 -149 -1 -76 -2 -142 -3
-148 -1 -6 -101 -10 -280 -10 -154 0 -286 -3 -295 -6 -13 -5 -16 -27 -16 -133
0 -69 -4 -130 -8 -136 -4 -7 -417 -10 -1202 -10 l-1195 0 -3 -3616 -2 -3617
1177 0 c648 0 1190 -1 1204 -1 l26 -1 1 -161 c1 -101 5 -165 12 -174 8 -10 65
-13 258 -13 136 0 265 -1 287 -1 l40 -1 -1 -142 c0 -79 3 -150 7 -159 8 -15
128 -17 1449 -17 1127 0 1444 3 1453 13 9 8 12 54 11 159 l-1 146 46 1 c25 0
152 0 281 1 129 0 243 4 253 9 15 9 17 28 17 174 0 164 0 165 23 166 12 0 261
1 552 1 l530 0 130 -76 c72 -42 137 -80 145 -86 8 -5 76 -44 150 -88 105 -62
382 -225 680 -402 8 -5 78 -46 155 -91 77 -45 157 -93 178 -106 22 -14 42 -22
45 -18 8 8 10 9095 2 9095 -3 -1 -75 -49 -160 -107z"/>
</g>
</svg>
