<?xml version="1.0" encoding="utf-8"?>
<!-- Generator: Adobe Illustrator 25.3.0, SVG Export Plug-In . SVG Version: 6.00 Build 0)  -->
<svg version="1.1" id="Layer_1" xmlns="http://www.w3.org/2000/svg" xmlns:xlink="http://www.w3.org/1999/xlink" x="0px" y="0px"
	 viewBox="0 0 1027.5 2828.1" style="enable-background:new 0 0 1027.5 2828.1;" xml:space="preserve">
<style type="text/css">
	.st0{fill:#C45051;}
	.st1{fill:#8EC63F;}
	.st2{fill:#FCC5A7;}
	.st3{fill:#BFF375;}
	.st4{opacity:0.2;fill:#3C3C81;}
	.st5{fill:#3A424B;}
	.st6{fill:#3F505E;}
	.st7{fill:#4A647E;}
	.st8{fill:#354D5E;}
	.st9{fill:#FFFFFF;}
</style>
<g>
	<path class="st0" d="M876.6,105.1c-54.9,0-99.4,44.5-99.4,99.4V145c0-53.6-43.5-97.1-97.1-97.1h-4.7c-53.6,0-97.1,43.5-97.1,97.1
		v-27.7c0-53.6-43.5-97.1-97.1-97.1l-4.7,0c-53.6,0-97.1,43.5-97.1,97.1V97.1c0-53.6-43.5-97.1-97.1-97.1L278,0
		c-53.6,0-97.1,43.5-97.1,97.1l0,274.3L59.1,464.8l0,0l-14.5,11.1C16.4,497.5,0,530.4,0,565.3l0,147.9c0,29.6,8.1,58.8,23.3,84.4
		L221.3,1066l0.3,0.4c0,0,0,100,0,100c-6.3,0.1-12,2.6-16.2,6.8c-0.1,0.1-0.1,0.1-0.2,0.2c-1,1-1.9,2.1-2.6,3.2
		c-0.2,0.3-0.3,0.7-0.5,1c-0.6,0.9-1.1,1.9-1.6,2.9c-0.3,0.7-0.4,1.4-0.7,2.1c-0.2,0.7-0.5,1.4-0.7,2.2c-0.3,1.5-0.5,3-0.5,4.6v28.6
		h-9.7c-9.9,0-18,8.1-18,18l0,216.7c0,9.9,8.1,18,18,18h9.7v28.6c0,12.7,10.3,23.1,23.1,23.1h1.2l0,155.7l-109.1,0l0,381.2h36.6
		l0,764.8l0,4l537.8,0l240.1-4l0-764.8h35.7l0-381.2l-115.1,0l0-122v-34.6v-0.1h7.2c12.7,0,23.1-10.3,23.1-23.1v-28.6h9.7
		c9.9,0,18-8.1,18-18l0-215.7c0-9.9-8.1-18-18-18h-9.7v-28.6c0-12.7-10.3-23.1-23.1-23.1h-4.8l1.1-102L949.4,890
		c17.5-31.5,26.6-66.7,26.6-102.5V677.1l0-158.4l0-314.1C976,149.6,931.5,105.1,876.6,105.1z"/>
	<g>
		<rect x="202" y="1840.4" class="st1" width="778" height="987.6"/>
		<path class="st2" d="M928.1,105.1c-54.9,0-99.4,44.5-99.4,99.4l0-59.5c0-53.6-43.5-97.1-97.1-97.1l-4.6,0
			c-53.6,0-97.1,43.5-97.1,97.1v-27.7c0-53.6-43.5-97.1-97.1-97.1h-4.7c-53.6,0-97.1,43.5-97.1,97.1V97.1
			c0-53.6-43.5-97.1-97.1-97.1l-4.6,0c-53.6,0-97.1,43.5-97.1,97.1l0,274.3L96,475.9c-28.1,21.5-44.5,54.5-44.5,89.4l0,147.9
			c0,29.6,8.1,58.8,23.3,84.4l199.7,270.8l0,678.6l626.1,0l0-676.2L1000.9,890c17.5-31.5,26.6-66.7,26.6-102.5V677.1V518.7l0-314.1
			C1027.5,149.6,983,105.1,928.1,105.1z"/>
		<path class="st3" d="M1015.6,2059.3H901.1c-10.8,0-21.1-4.5-28.4-12.5l-62.6-68.3c-14.9-16.2-40.4-16.7-55.8-1l-69,70.2
			c-7.2,7.4-17.1,11.5-27.4,11.5l-492.5,0l0-381.2l850.2,0L1015.6,2059.3z"/>
	</g>
	<polygon class="st4" points="275,1678.1 165,1678.1 165,2059.1 202,2059.1 202,2828.1 741.8,2828.1 747.1,1984.8 758,1974.1 
		769.3,1968.1 767.4,1678.1 	"/>
	<g>
		<path class="st5" d="M927.6,1522.4l-674.3,0c-1.7,0-3.1-1.4-3.1-3.1l0-349.7c0-1.7,1.4-3.1,3.1-3.1l674.3,0c1.7,0,3.1,1.4,3.1,3.1
			l0,349.7C930.8,1521,929.4,1522.4,927.6,1522.4z"/>
		<path class="st6" d="M956,1470.8l-731,0c-1.3,0-2.4-1.1-2.4-2.4l0-247.8c0-1.3,1.1-2.4,2.4-2.4l731,0c1.3,0,2.4,1.1,2.4,2.4
			l0,247.8C958.4,1469.7,957.3,1470.8,956,1470.8z"/>
		<path class="st7" d="M798.3,1629.8l-415.7,0c-35.2,0-63.7-28.5-63.7-63.7l0-443.5c0-35.2,28.5-63.7,63.7-63.7l415.7,0
			c35.2,0,63.7,28.5,63.7,63.7l0,443.5C862,1601.3,833.5,1629.8,798.3,1629.8z"/>
		<path class="st8" d="M792.8,1582.1l-404.6,0c-13.1,0-23.8-10.6-23.8-23.8l0-427.7c0-13.1,10.6-23.8,23.8-23.8l404.6,0
			c13.1,0,23.8,10.6,23.8,23.8l0,427.7C816.6,1571.4,805.9,1582.1,792.8,1582.1z"/>
		<path class="st9" d="M789.9,1563.6l-398.8,0c-5,0-9.1-4.1-9.1-9.1l0-420.1c0-5,4.1-9.1,9.1-9.1l398.8,0c5,0,9.1,4.1,9.1,9.1
			l0,420.1C799,1559.5,794.9,1563.6,789.9,1563.6z"/>
	</g>
</g>
</svg>
